<svg id="design" xmlns="http://www.w3.org/2000/svg" viewBox="0 0 256 18"><defs><style>.cls-1{fill:#fff;}</style></defs><title>emerson_logo_white</title><g id="_Group_" data-name="&lt;Group&gt;"><path id="_Path_" data-name="&lt;Path&gt;" class="cls-1" d="M215,84c2.37,0,3.9,1.13,4,3V81C218.9,82.87,217.37,84,215,84Z" transform="translate(-150 -75)"/><path id="_Path_2" data-name="&lt;Path&gt;" class="cls-1" d="M223,88c-0.14,3.12-1.57,5-5,5h5V88Z" transform="translate(-150 -75)"/><path id="_Path_3" data-name="&lt;Path&gt;" class="cls-1" d="M223,80c-0.14-3.12-1.57-5-5-5h5v5Z" transform="translate(-150 -75)"/><path id="_Path_4" data-name="&lt;Path&gt;" class="cls-1" d="M173,80c-0.14-3.12-1.57-5-5-5h5v5Z" transform="translate(-150 -75)"/><path id="_Path_5" data-name="&lt;Path&gt;" class="cls-1" d="M150,80c0.14-3.12,1.57-5,5-5h-5v5Z" transform="translate(-150 -75)"/><path id="_Path_6" data-name="&lt;Path&gt;" class="cls-1" d="M386,75c2,0,3,1,3,2.76V80l12,13h2V86L392,75h-6Z" transform="translate(-150 -75)"/><path id="_Path_7" data-name="&lt;Path&gt;" class="cls-1" d="M344,87.91V93c0.08-1.59,2-1.11,2.76-.61C344.74,90.93,344.08,89.5,344,87.91Z" transform="translate(-150 -75)"/><path id="_Path_8" data-name="&lt;Path&gt;" class="cls-1" d="M355.76,80.09V75c-0.08,1.59-2,1.11-2.76.61C355,77.07,355.68,78.5,355.76,80.09Z" transform="translate(-150 -75)"/><path id="_Path_9" data-name="&lt;Path&gt;" class="cls-1" d="M356.91,87.35c-0.4-2.1-2.09-3.36-4-4.73a12.37,12.37,0,0,1-2.41-2.08A3.21,3.21,0,0,1,349.23,78a2.84,2.84,0,0,1,2.64-2.89h0a9.08,9.08,0,0,0-1.2-.08,8.49,8.49,0,0,0-1.21.09,5.86,5.86,0,0,0-3.06,1.3A4.32,4.32,0,0,0,345,79.69a5.22,5.22,0,0,0,.09,1c0.4,2.11,2.09,3.36,4,4.73a12.37,12.37,0,0,1,2.41,2.08A3.21,3.21,0,0,1,352.77,90a2.85,2.85,0,0,1-2.64,2.89h0a9.07,9.07,0,0,0,1.2.07,8.55,8.55,0,0,0,1.21-.08,5.86,5.86,0,0,0,3.06-1.3A4.32,4.32,0,0,0,357,88.31,5.4,5.4,0,0,0,356.91,87.35Z" transform="translate(-150 -75)"/><path id="_Path_10" data-name="&lt;Path&gt;" class="cls-1" d="M372,75c-5.38.24-9,4.17-9,9s3.62,8.76,9,9c-2.36-.49-4-4.33-4-9S369.64,75.49,372,75Z" transform="translate(-150 -75)"/><path id="_Path_11" data-name="&lt;Path&gt;" class="cls-1" d="M373,75c5.38,0.24,9,4.17,9,9s-3.62,8.76-9,9c2.36-.49,4-4.33,4-9S375.36,75.49,373,75Z" transform="translate(-150 -75)"/><path id="_Path_12" data-name="&lt;Path&gt;" class="cls-1" d="M328,84c3.74,0,8-.21,8-4.5s-4.26-4.5-8-4.5c1.38,0,3,.78,3,4.5S329.38,84,328,84Z" transform="translate(-150 -75)"/><path id="_Path_13" data-name="&lt;Path&gt;" class="cls-1" d="M336.81,90.56c-0.06-.11-2.46-3.74-2.46-3.74-1.2-2.09-2.57-2.74-4-2.82H328c1.41,0.08,2.47.8,3.14,3,0,0,1,3.31,1,3.48,0.67,1.82,1.67,2.4,3,2.47H340C338.71,92.93,337.85,92.34,336.81,90.56Z" transform="translate(-150 -75)"/><path id="_Path_14" data-name="&lt;Path&gt;" class="cls-1" d="M269.26,75H262a2.52,2.52,0,0,1,2.48,1.73L271.68,93h0.42l2.47-6.31Z" transform="translate(-150 -75)"/><path id="_Path_15" data-name="&lt;Path&gt;" class="cls-1" d="M214,90V78c0-2.06,1.16-2.92,3-3H206c1.84,0.08,3,.94,3,3V90c0,2.06-1.16,2.92-3,3h11C215.16,92.92,214,92.06,214,90Z" transform="translate(-150 -75)"/><path id="_Path_16" data-name="&lt;Path&gt;" class="cls-1" d="M248,84c2.37,0,3.9,1.13,4,3V81C251.9,82.87,250.37,84,248,84Z" transform="translate(-150 -75)"/><path id="_Path_17" data-name="&lt;Path&gt;" class="cls-1" d="M265,89c0,2.37-1.13,3.9-3,4h6C266.13,92.9,265,91.37,265,89Z" transform="translate(-150 -75)"/><path id="_Path_18" data-name="&lt;Path&gt;" class="cls-1" d="M389,89c0,2.37-1.13,3.9-3,4h6C390.13,92.9,389,91.37,389,89Z" transform="translate(-150 -75)"/><path id="_Path_19" data-name="&lt;Path&gt;" class="cls-1" d="M403,79c0-2.37,1.13-3.9,3-4h-6C401.87,75.1,403,76.63,403,79Z" transform="translate(-150 -75)"/><path id="_Path_20" data-name="&lt;Path&gt;" class="cls-1" d="M256,88c-0.14,3.12-1.57,5-5,5h5V88Z" transform="translate(-150 -75)"/><path id="_Path_21" data-name="&lt;Path&gt;" class="cls-1" d="M256,80c-0.14-3.12-1.57-5-5-5h5v5Z" transform="translate(-150 -75)"/><path id="_Path_22" data-name="&lt;Path&gt;" class="cls-1" d="M247,90V78c0-2.06,1.16-2.92,3-3H239c1.84,0.08,3,.94,3,3V90c0,2.06-1.16,2.92-3,3h11C248.16,92.92,247,92.06,247,90Z" transform="translate(-150 -75)"/><path id="_Path_23" data-name="&lt;Path&gt;" class="cls-1" d="M302,84c2.37,0,3.9,1.13,4,3V81C305.9,82.87,304.37,84,302,84Z" transform="translate(-150 -75)"/><path id="_Path_24" data-name="&lt;Path&gt;" class="cls-1" d="M310,88c-0.14,3.12-1.57,5-5,5h5V88Z" transform="translate(-150 -75)"/><path id="_Path_25" data-name="&lt;Path&gt;" class="cls-1" d="M310,80c-0.14-3.12-1.57-5-5-5h5v5Z" transform="translate(-150 -75)"/><path id="_Path_26" data-name="&lt;Path&gt;" class="cls-1" d="M301,90V78c0-2.06,1.16-2.92,3-3H293c1.84,0.08,3,.94,3,3V90c0,2.06-1.16,2.92-3,3h11C302.16,92.92,301,92.06,301,90Z" transform="translate(-150 -75)"/><path id="_Path_27" data-name="&lt;Path&gt;" class="cls-1" d="M324,90V78c0-2.06,1.16-2.92,3-3H316c1.84,0.08,3,.94,3,3V90c0,2.06-1.16,2.92-3,3h11C325.16,92.92,324,92.06,324,90Z" transform="translate(-150 -75)"/><path id="_Path_28" data-name="&lt;Path&gt;" class="cls-1" d="M284,90V78c0-2.06,1.16-2.92,3-3H276c1.84,0.08,3,.94,3,3V90c0,2.06-1.16,2.92-3,3h11C285.16,92.92,284,92.06,284,90Z" transform="translate(-150 -75)"/><path id="_Path_29" data-name="&lt;Path&gt;" class="cls-1" d="M164,90V78c0-2.06,1.16-2.92,3-3H156c1.84,0.08,3,.94,3,3V90c0,2.06-1.16,2.92-3,3h11C165.16,92.92,164,92.06,164,90Z" transform="translate(-150 -75)"/><path id="_Path_30" data-name="&lt;Path&gt;" class="cls-1" d="M197,90V78c0-2.06,1.16-2.92,3-3H189c1.84,0.08,3,.94,3,3v3.5c-0.07,1.56-1.22,2.5-3,2.5,1.78,0,2.93.94,3,2.5V90c0,2.06-1.16,2.92-3,3h11C198.16,92.92,197,92.06,197,90Z" transform="translate(-150 -75)"/><path id="_Path_31" data-name="&lt;Path&gt;" class="cls-1" d="M188,75H177c1.84,0.08,3,.94,3,3V90c0,2.06-1.16,2.92-3,3h11c-1.84-.08-3-0.94-3-3V86.5c0.07-1.56,1.22-2.5,3-2.5-1.78,0-2.93-.94-3-2.5V78C185,75.94,186.16,75.08,188,75Z" transform="translate(-150 -75)"/></g></svg>