<?xml version="1.0" encoding="utf-8"?>
<!-- Generator: Adobe Illustrator 18.1.1, SVG Export Plug-In . SVG Version: 6.00 Build 0)  -->
<svg version="1.1" id="Layer_1" xmlns="http://www.w3.org/2000/svg" xmlns:xlink="http://www.w3.org/1999/xlink" x="0px" y="0px"
	 viewBox="0 0 197.8 212.7" enable-background="new 0 0 197.8 212.7" xml:space="preserve">
<path fill="#65CBC9" d="M98.5,20.1c-42.8,0-77.7,34.7-77.7,77.4c0,42.7,34.8,77.4,77.7,77.4c42.8,0,77.7-34.7,77.7-77.4
	C176.2,54.8,141.4,20.1,98.5,20.1 M98.5,191.1c-51.8,0-93.9-42-93.9-93.6c0-51.6,42.1-93.6,93.9-93.6c51.8,0,93.9,42,93.9,93.6
	C192.4,149.1,150.3,191.1,98.5,191.1"/>
<path fill="#65CBC9" d="M145.1,74.8H52v-9.6h93.2V74.8z M145.1,98.7H52v-9.6h93.2V98.7z M145.1,123.2H52v-9.6h93.2V123.2z"/>
</svg>
