<svg id="Layer_1" data-name="Layer 1" xmlns="http://www.w3.org/2000/svg" viewBox="0 0 729.81 204.57"><defs><style>.cls-1,.cls-2{fill:#fffdfd;}.cls-1{fill-rule:evenodd;}</style></defs><title>member-logo</title><path class="cls-1" d="M1079.73,626.3c-6.66-8.73-16-11.06-25.09-14.06-9.6-3.18-19.33-6.11-28.61-10.11-5.46-2.36-10.24-6.47-15.16-10-2.7-2-3.34-2.19-5.39.59a71.79,71.79,0,0,0-5.35,8c-2.52,4.6-1.62,9.54,2,12.61,3.24,2.77,9.9,3,13.21.44,2.38-1.85,3.6-5,1.57-7.84a23.38,23.38,0,0,1-3.83,3.2c-1.23.66-3.06,1.28-4.12,0.78a5.27,5.27,0,0,1-2.26-3.68c-0.52-4.13,1.76-6.56,5.75-6.47,3.34,0.07,6.24,1.32,7.9,4.43s1,6.32-.74,9.23a12.61,12.61,0,0,1-14,5.73,14.41,14.41,0,0,1-10.72-12.31,17.4,17.4,0,0,1,4.25-13.34c1.76-2.13,3.6-4.18,5.49-6.35a15.49,15.49,0,0,0-1.09-1.81c-8.44-10.47-12.28-22.92-14.19-36.06-3.92-27,5.88-48.49,25.43-65.9,9.47-8.44,20.2-14.83,31.54-20.18,5.16-2.44,6.29-4.38,5.57-9.56l-3,1.15c-7.53,2.92-15,6.18-22.63,8.64a27,27,0,0,1-15.89-.18A18,18,0,0,1,997.5,447a17.51,17.51,0,0,1,10.31-17.18c9.21-3.92,19.56,3.1,18.76,12.71-0.53,6.35-6,9.9-11.72,7.67a6.59,6.59,0,0,1-2.79-10.66,43.85,43.85,0,0,1,4.74-4.32c-2.53-2.46-5.9-2.73-9.29-.58-4.07,2.59-5.78,6.54-5.65,11.35s2,8.85,6.27,11a26.89,26.89,0,0,0,22.81.67c18-7.42,34.12-17.8,45.87-34.24,0.29-.41.61-0.8,1.26-1.65v26.06l0.65,0.61c5.29-3.56,10.7-6.94,15.83-10.71a38.18,38.18,0,0,0,12-15.28c6,13.07,16.62,20.61,27.87,27.43a16.93,16.93,0,0,0,13.76,1.85c4.59-1.25,7.18-5.35,6.67-10.42s-3.47-8-8.46-8.43c0.31,2.3.8,4.58,0.88,6.88,0.12,3.44-1.43,5-4.71,5.16-4.4.22-7.56-2.08-8.08-5.88-0.73-5.34,2.23-10.22,6.9-11.37,7.64-1.88,16.3,4.4,17.2,12.44,0.4,3.53-.95,6.45-2.79,9.28a70,70,0,0,1-17.48,17.88c-8.77,6.5-17.46,13.12-26.19,19.7-0.73.55-1.42,1.15-2.61,2.11h25.93v-9.23h3.87v39.11h-2.88c0-1,0-2,0-2.91,0-4.37-1.22-5.7-5.39-5.81-0.51,0-1,0-1.53,0l-20.17.24c-0.57,0-1.15.09-1.79,0.15a7.58,7.58,0,0,0-.18,1.11c0,7.54,0,15.09,0,23.38,5.34-4.7,11.87-7.13,14.83-13.73a4.54,4.54,0,0,0-.26-3.8c-0.75-1-2.37-1.35-4.13-2.24a19.56,19.56,0,0,1,.18,4c-0.18.88-.69,2.15-1.33,2.36-1.3.43-3.07,0.79-4.13,0.2-1.54-.85-1.5-4.47-0.36-6.3,1.74-2.81,7-3.92,10.16-2.13,3.74,2.15,4.8,5.65,2.91,9.54-2.65,5.44-7.53,8.45-12.14,11.74-1,.7-2.08,1.22-3,1.94-2.62,2-3.3,4.58-2,8.09l31.3-21.15c0.77,1.19.77,1.19-1.74,6.39,2.53,1.88,5.32,3.46,7.53,5.66,8.81,8.77,8.55,25.58-.75,33.73-8.41,7.37-16.94,14.68-26,21.22a223,223,0,0,0-37.52,33.93A14.86,14.86,0,0,0,1079.73,626.3Zm-27.58-159.44c-1,.39-1.83.65-2.59,1a59.21,59.21,0,0,0-26.85,23.8c-13.86,22.8-14.35,45.76-.61,68.82,2.81,4.71,6.31,8.77,11.39,10.91,1.26,0.53,3.34.79,4.25,0.08,8.49-6.53,14.61-14.33,14.49-26.21-0.26-25.09-.08-50.18-0.08-75.27v-3.12Zm26.41,43.86c0,7.52,0,14.79,0,22.06,0,2.23,1.3,3.41,3.48,3.21,1.6-.15,3.17-0.58,4.76-0.83a19.35,19.35,0,0,1,2-.12l0.46,0.81a44,44,0,0,1-4.62,4.95c-13,10.26-26,20.42-39,30.62-1.65,1.29-3.24,2.65-5.09,4.15,16.58,8.39,33.53,13.13,51.48,13.89v-33c-5.1,3.44-9.65,6.64-14.33,9.62-2.83,1.8-3.38,4.4-3.23,7.44,0.11,2,1.18,2.87,3.36,2.85,0-1.22-.09-2.27,0-3.29a4.54,4.54,0,0,1,5.2-4.18c2.64,0.34,4,2.39,3.45,5.37-0.63,3.77-3.8,6-8.18,5.85a6.77,6.77,0,0,1-6.82-6.43,11.26,11.26,0,0,1,5.07-11c3.94-2.75,7.91-5.49,12-7.91a6.32,6.32,0,0,0,3.56-6.27c-0.18-11.84-.14-23.69-0.19-35.54,0-.75-0.11-1.5-0.17-2.25h-13.32Zm-0.58-4.29c4.56-3.19,8.39-5.95,12.3-8.56a5.85,5.85,0,0,0,2.84-5.43c-0.1-10.79,0-21.59,0-32.38,0-2.63.14-5.27-.06-7.88s-1.81-3.74-4.25-2.71c-2.66,1.12-5.19,2.59-7.75,3.95-2.11,1.12-2.9,2.9-2.89,5.38,0,12.2-.08,24.39-0.14,36.59C1078,498.83,1078,502.3,1078,506.42Zm29.77,82.26c1.15-.41,1.72-0.55,2.22-0.81,4.19-2.12,8.54-4,12.5-6.45,7.94-5,10.59-14.66,6.8-23.42-3.36-7.77-11.85-12.36-18.63-10.19-2.11.68-3,1.82-3,4.16,0.1,11.13,0,22.26.05,33.39v3.32Zm-10.23.4c4.58,0.35,4.7.3,4.7-2.37q0-36.29,0-72.58c0-3-1.55-4.19-4.7-3.74v78.69Zm8.9-103.85,0.64,0.44c4.09-3.53,8.3-6.94,12.23-10.65,2.12-2,2-4.3,0-6.52a49.63,49.63,0,0,0-4.63-4.51c-2.55-2.22-5.19-4.33-8.28-6.9v28.14Zm-8.84,7.14c2.63-1.09,4.16-2.62,4.15-5.49,0-9.8,0-19.61,0-29.41,0-2.86-1.16-4.19-4.17-5.1v40Z" transform="translate(-428.78 -421.73)"/><path class="cls-1" d="M1147.88,579L1136,589.32c1.87,0.46,3.41.77,4.9,1.23,6.16,1.92,9.15,6.54,8.71,13.35a13,13,0,0,1-10.59,11.54c-6.85,1.11-11.81-2.48-12.66-9.17-0.7-5.51,4.15-10.37,9.27-9.31a4.45,4.45,0,0,1,3.83,4c0.28,2,.24,3.89-1.71,5.09s-3.73.4-5.31-1c-0.63-.56-1.31-1.08-2-1.63-2,4.67,1.08,9.44,5.9,9.33,5.65-.13,10.62-5.26,10.26-10.59-0.38-5.59-5.5-9.65-11.4-9-8.06.86-13.56,6-18.48,12-1.66,2-1.35,4.59-.5,7,0.4,1.13.83,2.24,1.43,3.88a32.93,32.93,0,0,1-4.89-1.55c-3.77-1.91-7.07-1.07-10.22,1.41-1.89,1.49-3.73,3.06-5.71,4.42a13.75,13.75,0,0,1-3.1,1.19l-0.48-.7a9.31,9.31,0,0,1,1.22-1.59q24.32-20.46,48.65-40.9C1145,576.77,1146.44,576.36,1147.88,579Z" transform="translate(-428.78 -421.73)"/><path class="cls-1" d="M1050.49,515.78c-4.59,5.09-9.14,9.92-13.45,15-3.18,3.74-6.68,7.5-7.11,12.77a22.68,22.68,0,0,0,1,7.94c0.77,2.67,3.75,4.24,6.56,4a5.52,5.52,0,0,0,5.16-3.88c-1,0-1.71.06-2.43,0.13-2.14.19-3.71-.38-3.94-2.93s0.68-4,3.13-4.5c2.78-.56,4.77.31,5.81,2.54,1.43,3.08.69,7-1.68,8.87-5.78,4.59-12.32,2.85-15.35-4-2.64-5.95-1.5-11.61,1.58-16.79,3.8-6.4,2.83-7.37-2.57-12.16-2.64-2.34-5.34-4.61-8.21-7.08,2.95-2.26,6-4.15,8.53-6.65a67.51,67.51,0,0,0,8.79-10.46,6.3,6.3,0,0,0-3.6-9.84,11.77,11.77,0,0,1,1,2.89,18.56,18.56,0,0,1-.66,3.75c-1.5-.66-3.42-0.89-3.89-1.87a5.68,5.68,0,0,1,.17-4.57c1.05-1.87,2.84-3.28,5.34-2.61a7.57,7.57,0,0,1,5.1,8.11,27.67,27.67,0,0,1-1.38,5.57c-1.08,2.81-.33,4.92,1.79,6.75C1043.56,509.74,1047,512.74,1050.49,515.78Z" transform="translate(-428.78 -421.73)"/><path class="cls-2" d="M580.07,615.19H428.78v-5.35c20.81-1.13,24.47-5.63,24.47-27V461.42c0-21.69-2.53-25.63-24.47-27.32v-5.35h79.58v5.35c-23.06,1.41-26.43,5.07-26.43,26.75V591.54c0,10.7,4.78,12.67,25.31,12.67h19.68c22.78,0,38-5.07,47.52-17.18,3.66-4.79,7.31-11,11.81-20.84h7.31Z" transform="translate(-428.78 -421.73)"/><path class="cls-2" d="M698.46,619.14c-54.55,0-92-39.43-92-98,0-57.17,37.12-96.32,92-96.32,55.12,0,92,41.4,92,97.16C790.41,580,752.45,619.14,698.46,619.14Zm34.31-170.95C722.64,439.74,711.39,435,698.18,435c-15.19,0-29.25,6.2-40.21,18.87-12.09,13.8-19.4,41.12-19.4,67.87,0,33.51,8.15,58.86,25.31,74.63,9.56,8.73,21.93,12.67,34.87,12.67,14.06,0,26.43-4.22,36.28-13.52,15.47-14.93,23.34-41.4,23.34-75.19C758.36,488.18,748.79,461.7,732.77,448.19Z" transform="translate(-428.78 -421.73)"/><path class="cls-2" d="M987.54,434.11c-11.25.28-17.72,4.79-25.87,25.63L899.24,618.29H895L826.4,465.08c-12.09-27.32-16.31-30.7-30.37-31v-5.35h74.52v5.35l-7.87.56c-9,.56-12.65,3.1-12.65,8.73,0,4.51,2.53,11.27,11,30.13l42.74,96.32,41.34-103.92c3.37-8.45,5.34-15.49,5.34-20.28,0-11-9-10.42-20.25-11.55v-5.35h57.37v5.35Z" transform="translate(-428.78 -421.73)"/></svg>